<svg width="16" height="16" viewBox="0 0 16 16" fill="none" xmlns="http://www.w3.org/2000/svg">
<g clip-path="url(#clip0_4057_2)">
<circle cx="8" cy="8" r="8" fill="#F4F4F4"/>
<path fill-rule="evenodd" clip-rule="evenodd" d="M10.8897 3.64752C9.47922 2.73486 8.10048 2.87199 7.05362 3.53216C6.01131 4.18945 5.29882 5.36445 5.2078 6.52866L5.28617 6.53479L5.2078 6.52867C5.05303 8.50875 5.64141 9.78864 6.07011 10.5315C5.73804 10.8642 5.41884 11.1403 5.1111 11.3263C4.8884 11.4609 4.57725 11.4019 4.33896 11.1314L4.33895 11.1314C3.92003 10.6559 3.86427 10.081 3.94803 9.56056C4.03193 9.03921 4.25479 8.58175 4.37976 8.35658L4.44455 8.23982H4.38959C4.36618 8.16957 4.29256 8.11764 4.20663 8.14748L4.20661 8.14749C4.14689 8.16824 4.08689 8.21755 4.03029 8.27666C3.97177 8.33778 3.90925 8.41762 3.84537 8.51065C3.71747 8.69691 3.58011 8.94196 3.45429 9.21045C3.20411 9.74433 2.99204 10.3871 3.00023 10.8553C3.01638 11.7893 3.50536 12.5716 4.26396 12.8357C4.67465 12.9786 5.05563 12.9789 5.41621 12.8645C5.77513 12.7506 6.10925 12.5245 6.43074 12.222L6.43074 12.222C6.61797 12.0458 6.80202 11.864 6.98271 11.6792C7.7877 12.3001 8.93024 12.5072 9.99871 12.2801C11.4198 11.978 12.7266 10.9056 12.9715 8.9974C13.1043 7.96309 12.7599 7.13727 12.2027 6.66599C11.645 6.19433 10.8786 6.08323 10.1914 6.47392L10.2303 6.54226L10.1914 6.47392C9.20949 7.03224 8.29957 8.0332 7.45764 8.99532C7.38617 9.077 7.31519 9.15839 7.24468 9.23925C7.18326 9.30969 7.1222 9.37971 7.06148 9.44915C6.99901 9.33483 6.93831 9.21317 6.87962 9.08383L6.87962 9.08382C6.77495 8.85326 6.63733 8.35775 6.60521 7.75207C6.57316 7.14735 6.64668 6.43969 6.95734 5.78147L6.88625 5.74792L6.95734 5.78147C7.21864 5.22782 7.83099 4.68694 8.55759 4.54146C9.27569 4.39768 10.1192 4.63779 10.8569 5.67173L10.8569 5.67173C10.9753 5.83769 11.1604 5.96955 11.3589 6.05185C11.5572 6.13406 11.7774 6.17032 11.9695 6.13531C12.1644 6.09977 12.3337 5.98907 12.4085 5.77959C12.4813 5.57594 12.4589 5.29453 12.3143 4.92677L12.3142 4.92674C12.2749 4.82676 12.1941 4.71756 12.0941 4.60809C11.9929 4.49727 11.8669 4.38065 11.7308 4.26588C11.4585 4.03629 11.1411 3.81021 10.8897 3.64752ZM9.03037 10.9849C8.68825 10.9539 8.33729 10.83 8.0005 10.5825C8.04212 10.5359 8.0835 10.4895 8.12465 10.4432C8.23627 10.3177 8.34608 10.1935 8.45407 10.0714L8.45421 10.0713C8.85788 9.61478 9.23611 9.18706 9.58797 8.82694C10.0356 8.36881 10.4313 8.03002 10.7728 7.88034C10.9421 7.80614 11.092 7.78117 11.2252 7.80593C11.357 7.83044 11.4824 7.90547 11.6005 8.05015L11.6005 8.05016C11.6942 8.16506 11.7323 8.31984 11.7256 8.50298C11.7188 8.68619 11.6673 8.89085 11.59 9.09583C11.4351 9.50622 11.183 9.90147 11.0139 10.1003L11.0139 10.1003C10.5342 10.6644 9.79221 11.0538 9.03037 10.9849Z" fill="#191717"/>
</g>
<defs>
<clipPath id="clip0_4057_2">
<rect width="16" height="16" fill="white"/>
</clipPath>
</defs>
</svg>
