<svg width="2364" height="2352" viewBox="0 0 2364 2352" fill="none" xmlns="http://www.w3.org/2000/svg">
<path fill-rule="evenodd" clip-rule="evenodd" d="M1865.12 153.073C1531.69 -62.6799 1205.75 -30.2605 958.276 125.802C711.874 281.186 543.441 558.957 521.923 834.176L540.45 835.625L521.923 834.177C485.336 1302.27 624.428 1604.83 725.773 1780.44C647.274 1859.09 571.814 1924.36 499.063 1968.35C446.418 2000.15 372.861 1986.2 316.53 1922.26L316.528 1922.26C217.495 1809.86 204.312 1673.96 224.114 1550.92C243.949 1427.67 296.632 1319.53 326.174 1266.29L341.492 1238.69H328.499C322.966 1222.09 305.562 1209.81 285.247 1216.86L285.242 1216.87C271.126 1221.77 256.941 1233.43 243.561 1247.4C229.726 1261.85 214.946 1280.73 199.845 1302.72C169.611 1346.75 137.138 1404.68 107.395 1468.15C48.2527 1594.36 -1.88092 1746.31 0.0542195 1857C3.8724 2077.79 119.467 2262.73 298.8 2325.15C395.888 2358.94 485.951 2359.02 571.193 2331.97C656.041 2305.04 735.028 2251.6 811.026 2180.09L811.028 2180.08C855.287 2138.43 898.798 2095.45 941.513 2051.76C1131.81 2198.55 1401.91 2247.51 1654.5 2193.81C1990.44 2122.39 2299.37 1868.89 2357.27 1417.79C2388.66 1173.27 2307.25 978.05 2175.52 866.639C2043.68 755.14 1862.51 728.876 1700.05 821.235L1709.24 837.39L1700.05 821.236C1467.92 953.222 1252.82 1189.85 1053.79 1417.29C1036.89 1436.6 1020.11 1455.84 1003.44 1474.96C988.922 1491.61 974.487 1508.16 960.134 1524.58C945.367 1497.55 931.017 1468.79 917.142 1438.22L917.141 1438.21C892.399 1383.71 859.864 1266.57 852.273 1123.39C844.694 980.434 862.074 813.142 935.516 657.539L918.71 649.607L935.516 657.539C997.286 526.658 1142.05 398.792 1313.81 364.401C1483.57 330.411 1682.98 387.174 1857.36 631.596L1857.37 631.598C1885.36 670.829 1929.12 702.002 1976.05 721.456C2022.93 740.891 2074.99 749.463 2120.38 741.188C2166.47 732.786 2206.48 706.617 2224.17 657.095C2241.37 608.952 2236.07 542.428 2201.89 455.489L2201.89 455.483C2192.58 431.846 2173.47 406.03 2149.84 380.152C2125.92 353.955 2096.13 326.386 2063.95 299.254C1999.58 244.979 1924.57 191.533 1865.12 153.073ZM1425.58 1887.62C1344.7 1880.31 1261.74 1851.01 1182.12 1792.5C1191.96 1781.49 1201.74 1770.51 1211.47 1759.58C1237.85 1729.91 1263.81 1700.55 1289.34 1671.68L1289.38 1671.65C1384.8 1563.73 1474.22 1462.62 1557.4 1377.49C1663.21 1269.19 1756.77 1189.1 1837.49 1153.71C1877.51 1136.17 1912.94 1130.27 1944.43 1136.12C1975.6 1141.92 2005.24 1159.65 2033.15 1193.86L2033.15 1193.86C2055.31 1221.02 2064.32 1257.61 2062.72 1300.9C2061.13 1344.22 2048.95 1392.6 2030.67 1441.05C1994.06 1538.07 1934.47 1631.51 1894.48 1678.5L1894.48 1678.51C1781.08 1811.87 1605.68 1903.92 1425.58 1887.62Z" fill="#191717"/>
</svg>
