<svg width="400" height="400" viewBox="0 0 400 400" fill="none" xmlns="http://www.w3.org/2000/svg">
  <!-- Background -->
  <rect width="400" height="400" fill="#f8fafc"/>
  
  <!-- Sneaker silhouette -->
  <path d="M70 240c0-25 25-50 55-55l50-12c20-6 40-6 60 0l50 12c30 5 55 30 55 55v25c0 25-25 50-55 50H125c-30 0-55-25-55-50v-25z" fill="#e2e8f0"/>
  
  <!-- Sole -->
  <ellipse cx="200" cy="300" rx="110" ry="18" fill="#cbd5e1"/>
  
  <!-- Shoe details -->
  <circle cx="140" cy="235" r="10" fill="#94a3b8"/>
  <circle cx="175" cy="230" r="8" fill="#94a3b8"/>
  <circle cx="225" cy="230" r="8" fill="#94a3b8"/>
  <circle cx="260" cy="235" r="10" fill="#94a3b8"/>
  
  <!-- Laces -->
  <line x1="165" y1="215" x2="235" y2="215" stroke="#64748b" stroke-width="3"/>
  <line x1="170" y1="205" x2="230" y2="205" stroke="#64748b" stroke-width="3"/>
  <line x1="175" y1="195" x2="225" y2="195" stroke="#64748b" stroke-width="3"/>
  
  <!-- Brand logo placeholder -->
  <circle cx="200" cy="170" r="30" fill="#f1f5f9" stroke="#cbd5e1" stroke-width="2"/>
  <text x="200" y="180" text-anchor="middle" fill="#64748b" font-family="Arial, sans-serif" font-size="28" font-weight="bold">👟</text>
</svg>
