<svg width="786" height="204" viewBox="0 0 786 204" fill="none" xmlns="http://www.w3.org/2000/svg">
<path fill-rule="evenodd" clip-rule="evenodd" d="M161.513 13.2556C132.639 -5.42787 104.414 -2.62046 82.9834 10.894C61.6458 24.3497 47.0602 48.4037 45.1968 72.2368L46.8011 72.3623L45.1968 72.2369C42.0284 112.772 54.0734 138.973 62.8495 154.18C56.0517 160.991 49.5172 166.643 43.2172 170.452C38.6583 173.206 32.2885 171.998 27.4104 166.461L27.4103 166.461C18.8344 156.728 17.6928 144.959 19.4075 134.304C21.1251 123.631 25.6873 114.266 28.2456 109.657L29.5721 107.267H28.4469C27.9678 105.829 26.4606 104.766 24.7014 105.376L24.701 105.377C23.4786 105.801 22.2502 106.811 21.0916 108.021C19.8935 109.272 18.6136 110.906 17.3059 112.811C14.6877 116.624 11.8757 121.64 9.30001 127.137C4.17852 138.066 -0.162882 151.224 0.00469522 160.81C0.335337 179.929 10.3455 195.945 25.875 201.35C34.2826 204.276 42.0817 204.283 49.4634 201.94C56.8109 199.609 63.6509 194.981 70.2321 188.788L70.2323 188.788C74.065 185.181 77.8329 181.459 81.5319 177.676C98.0112 190.387 121.4 194.627 143.274 189.977C172.366 183.792 199.118 161.839 204.131 122.776C206.85 101.602 199.8 84.6958 188.392 75.048C176.976 65.3926 161.287 63.1182 147.219 71.1162L148.014 72.5152L147.219 71.1162C127.117 82.5458 108.49 103.037 91.2543 122.733C89.7912 124.405 88.3381 126.071 86.8946 127.727C85.6373 129.168 84.3873 130.602 83.1443 132.023C81.8656 129.683 80.6229 127.192 79.4214 124.545L79.4213 124.545C77.2787 119.825 74.4613 109.681 73.8039 97.2817C73.1476 84.9022 74.6527 70.4154 81.0125 56.9407L79.5572 56.2538L81.0125 56.9406C86.3616 45.6068 98.8973 34.534 113.772 31.5559C128.472 28.6124 145.74 33.528 160.841 54.6941L160.842 54.6943C163.266 58.0915 167.056 60.791 171.119 62.4757C175.179 64.1586 179.687 64.9009 183.618 64.1844C187.609 63.4568 191.074 61.1906 192.606 56.9022C194.095 52.7332 193.636 46.9724 190.676 39.4438L190.676 39.4432C189.87 37.3964 188.216 35.1608 186.169 32.9198C184.097 30.6513 181.517 28.264 178.731 25.9144C173.157 21.2143 166.661 16.5861 161.513 13.2556ZM123.45 163.462C116.447 162.828 109.262 160.291 102.367 155.224C103.219 154.271 104.067 153.32 104.909 152.373C107.194 149.804 109.442 147.262 111.653 144.762L111.656 144.759C119.919 135.414 127.662 126.658 134.865 119.286C144.028 109.907 152.13 102.972 159.121 99.9076C162.586 98.3887 165.654 97.8775 168.381 98.3844C171.081 98.8861 173.647 100.422 176.064 103.384L176.064 103.384C177.983 105.736 178.763 108.905 178.625 112.654C178.487 116.405 177.433 120.594 175.849 124.79C172.679 133.192 167.518 141.283 164.056 145.353L164.055 145.353C154.235 156.902 139.046 164.873 123.45 163.462Z" fill="#191717"/>
<path d="M235.26 39.36V117.12C235.26 125.64 237.48 132.18 241.92 136.74C246.36 141.18 252.6 143.4 260.64 143.4C268.8 143.4 275.1 141.18 279.54 136.74C283.98 132.18 286.2 125.64 286.2 117.12V39.36H311.58V116.94C311.58 127.62 309.24 136.68 304.56 144.12C300 151.44 293.82 156.96 286.02 160.68C278.34 164.4 269.76 166.26 260.28 166.26C250.92 166.26 242.4 164.4 234.72 160.68C227.16 156.96 221.16 151.44 216.72 144.12C212.28 136.68 210.06 127.62 210.06 116.94V39.36H235.26ZM343.128 39.36V165H317.928V39.36H343.128ZM487.005 39.36V165H461.805V83.28L428.145 165H409.065L375.225 83.28V165H350.025V39.36H378.645L418.605 132.78L458.565 39.36H487.005ZM519.12 59.7V91.2H561.42V111.18H519.12V144.48H566.82V165H493.92V39.18H566.82V59.7H519.12ZM636.521 165L608.801 116.04H596.921V165H571.721V39.36H618.881C628.601 39.36 636.881 41.1 643.721 44.58C650.561 47.94 655.661 52.56 659.021 58.44C662.501 64.2 664.241 70.68 664.241 77.88C664.241 86.16 661.841 93.66 657.041 100.38C652.241 106.98 645.101 111.54 635.621 114.06L665.681 165H636.521ZM596.921 97.14H617.981C624.821 97.14 629.921 95.52 633.281 92.28C636.641 88.92 638.321 84.3 638.321 78.42C638.321 72.66 636.641 68.22 633.281 65.1C629.921 61.86 624.821 60.24 617.981 60.24H596.921V97.14ZM746.073 141.06H696.033L687.753 165H661.293L706.473 39.18H735.813L780.993 165H754.353L746.073 141.06ZM739.233 120.9L721.053 68.34L702.873 120.9H739.233Z" fill="#191717"/>
</svg>
